<svg width="68" height="30" viewBox="0 0 68 30" fill="none" xmlns="http://www.w3.org/2000/svg">
  <path d="M15 22.5C19.1421 22.5 22.5 19.1421 22.5 15C22.5 10.8579 19.1421 7.5 15 7.5C10.8579 7.5 7.5 10.8579 7.5 15C7.5 19.1421 10.8579 22.5 15 22.5Z" fill="#666666"/>
  <path d="M7.5 30C11.6421 30 15 26.6421 15 22.5C15 18.3579 11.6421 15 7.5 15C3.35786 15 0 18.3579 0 22.5C0 26.6421 3.35786 30 7.5 30Z" fill="#141414"/>
  <path d="M22.5 30C26.6421 30 30 26.6421 30 22.5C30 18.3579 26.6421 15 22.5 15C18.3579 15 15 18.3579 15 22.5C15 26.6421 18.3579 30 22.5 30Z" fill="#141414"/>
  <path d="M7.5 15C11.6421 15 15 11.6421 15 7.5C15 3.35786 11.6421 0 7.5 0C3.35786 0 0 3.35786 0 7.5C0 11.6421 3.35786 15 7.5 15Z" fill="#141414"/>
  <path d="M22.5 15C26.6421 15 30 11.6421 30 7.5C30 3.35786 26.6421 0 22.5 0C18.3578 0 15 3.35786 15 7.5C15 11.6421 18.3578 15 22.5 15Z" fill="#141414"/>
  
  <g transform="translate(36, 6)">
    <path d="M9 13.5C11.4853 13.5 13.5 11.4853 13.5 9C13.5 6.51472 11.4853 4.5 9 4.5C6.51472 4.5 4.5 6.51472 4.5 9C4.5 11.4853 6.51472 13.5 9 13.5Z" fill="#333333"/>
    <path d="M4.5 18C6.98528 18 9 15.9853 9 13.5C9 11.0147 6.98528 9 4.5 9C2.01472 9 0 11.0147 0 13.5C0 15.9853 2.01472 18 4.5 18Z" fill="#141414"/>
    <path d="M13.5 18C15.9853 18 18 15.9853 18 13.5C18 11.0147 15.9853 9 13.5 9C11.0147 9 9 11.0147 9 13.5C9 15.9853 11.0147 18 13.5 18Z" fill="#141414"/>
    <path d="M4.5 9C6.98528 9 9 6.98528 9 4.5C9 2.01472 6.98528 0 4.5 0C2.01472 0 0 2.01472 0 4.5C0 6.98528 2.01472 9 4.5 9Z" fill="#141414"/>
    <path d="M13.5 9C15.9853 9 18 6.98528 18 4.5C18 2.01472 15.9853 0 13.5 0C11.0147 0 9 2.01472 9 4.5C9 6.98528 11.0147 9 13.5 9Z" fill="#141414"/>
  </g>
  
  <g transform="translate(60, 10.8)">
    <path d="M4.2 6.3C5.3598 6.3 6.3 5.3598 6.3 4.2C6.3 3.0402 5.3598 2.1 4.2 2.1C3.0402 2.1 2.1 3.0402 2.1 4.2C2.1 5.3598 3.0402 6.3 4.2 6.3Z" fill="#333333"/>
    <path d="M2.1 8.4C3.2598 8.4 4.2 7.4598 4.2 6.3C4.2 5.1402 3.2598 4.2 2.1 4.2C0.940202 4.2 0 5.1402 0 6.3C0 7.4598 0.940202 8.4 2.1 8.4Z" fill="#141414"/>
    <path d="M6.3 8.4C7.4598 8.4 8.4 7.4598 8.4 6.3C8.4 5.1402 7.4598 4.2 6.3 4.2C5.1402 4.2 4.2 5.1402 4.2 6.3C4.2 7.4598 5.1402 8.4 6.3 8.4Z" fill="#141414"/>
    <path d="M2.1 4.2C3.2598 4.2 4.2 3.2598 4.2 2.1C4.2 0.940202 3.2598 0 2.1 0C0.940202 0 0 0.940202 0 2.1C0 3.2598 0.940202 4.2 2.1 4.2Z" fill="#141414"/>
    <path d="M6.3 4.2C7.4598 4.2 8.4 3.2598 8.4 2.1C8.4 0.940202 7.4598 0 6.3 0C5.1402 0 4.2 0.940202 4.2 2.1C4.2 3.2598 5.1402 4.2 6.3 4.2Z" fill="#141414"/>
  </g>
</svg>
